<?xml version="1.0" encoding="utf-8"?>
<!-- Generator: Adobe Illustrator 24.3.0, SVG Export Plug-In . SVG Version: 6.00 Build 0)  -->
<svg version="1.1" id="Layer_1" xmlns="http://www.w3.org/2000/svg" xmlns:xlink="http://www.w3.org/1999/xlink" x="0px" y="0px"
	 viewBox="0 0 50 50" style="enable-background:new 0 0 50 50;" xml:space="preserve">
<style type="text/css">
	.st0{fill:none;stroke:#DFE324;stroke-width:1.7;stroke-miterlimit:10;}
	.st1{fill:none;stroke:#3DB54A;stroke-width:2;stroke-miterlimit:10;}
	.st2{fill:#019547;stroke:#3DB54A;stroke-width:0.5;stroke-miterlimit:10;}
</style>
<polyline class="st0" points="1.7,39.9 3.4,39.4 8.5,38 14.9,36.1 20.2,34.6 25.6,33.1 31.8,31.4 33.4,30.9 "/>
<polyline class="st0" points="6.2,42.1 8,41.6 13,40.1 19.1,38.3 24.5,36.8 29.9,35.2 35.8,33.4 37.4,33 "/>
<polyline class="st0" points="11.4,44.8 13.4,44.3 18.6,42.8 24.5,41.1 30,39.5 35.6,37.9 41.3,36.3 43,35.8 "/>
<polyline class="st0" points="16.7,47.5 18.8,46.9 24.1,45.4 29.6,43.8 35.3,42.1 40.9,40.5 46.5,38.9 48.1,38.4 "/>
<polyline class="st0" points="0.8,38.1 3.4,39.4 8,41.6 13.4,44.3 18.8,46.9 23.9,49.4 "/>
<polyline class="st0" points="3.5,35.6 8.5,38 13,40.1 18.6,42.8 24.1,45.4 31.2,48.8 "/>
<polyline class="st0" points="9.9,33.6 14.9,36.1 19.1,38.3 24.5,41.1 29.6,43.8 36.2,47.2 "/>
<polyline class="st0" points="14.9,32 20.2,34.6 24.5,36.8 30,39.5 35.3,42.1 42,45.4 "/>
<polyline class="st0" points="20.1,30.4 25.6,33.1 29.9,35.2 35.6,37.9 40.9,40.5 47.5,43.7 "/>
<polyline class="st0" points="49.1,40.2 46.5,38.9 41.3,36.3 35.8,33.4 31.8,31.4 28.4,29.7 26.2,28.5 "/>
<path class="st1" d="M6.7,15.3c3.8,1.9,8.7,5.2,12.1,10.8c4.9,8,4.6,16.8,6.1,16.7c1.5,0,0.6-9.2,5.4-16.9c3.8-6.1,9.7-9.2,14.9-11"
	/>
<line class="st1" x1="24.9" y1="42.8" x2="23.6" y2="13.7"/>
<path class="st2" d="M23.3,0.6c-3.5,0-6.3,2.9-6.3,6.6s2.8,6.6,6.3,6.6h0.3c3.3-0.2,6-3,6-6.6C29.6,3.5,26.8,0.6,23.3,0.6z
	 M24.3,10.4c-0.3,0.1-0.5,0.2-0.8,0.2c-1.4,0.1-2.7-0.8-3.2-2.2c-0.5-1.8,0.4-3.7,2.1-4.3c1.7-0.6,3.5,0.3,4,2.1
	C26.9,7.8,26,9.7,24.3,10.4z"/>
</svg>
