<?xml version="1.0" encoding="utf-8"?>
<!-- Generator: Adobe Illustrator 24.3.0, SVG Export Plug-In . SVG Version: 6.00 Build 0)  -->
<svg version="1.1" id="Layer_1" xmlns="http://www.w3.org/2000/svg" xmlns:xlink="http://www.w3.org/1999/xlink" x="0px" y="0px"
	 viewBox="0 0 200 100" style="enable-background:new 0 0 200 100;" xml:space="preserve">
<style type="text/css">
	.st0{fill:#3DB54A;stroke:#F4F5CB;stroke-width:2;stroke-miterlimit:10;}
	.st1{fill:#3DB54A;}
	.st2{fill:none;stroke:#FFFFFF;stroke-width:1.7;stroke-miterlimit:10;}
	.st3{fill:none;stroke:#DFE324;stroke-width:1.7;stroke-miterlimit:10;}
	.st4{fill:none;stroke:#3DB54A;stroke-width:2;stroke-miterlimit:10;}
	.st5{fill:#019547;stroke:#3DB54A;stroke-width:0.5;stroke-miterlimit:10;}
</style>
<polygon class="st0" points="83.3,97.4 94.7,44 114.5,97.4 123.7,97.4 138.6,2.6 123.7,2.6 110.9,47.5 87.5,2.6 70.3,97.4 "/>
<polygon class="st1" points="198.7,2.6 198.3,4.9 196.9,13.9 195.9,20.2 195.9,20.2 195.4,23.6 193.8,33.4 192.3,43.1 191.6,47 
	190.8,52.8 189.3,62.5 189.2,62.5 187.7,72.3 187.4,73.8 187.4,73.9 186.2,82 184.7,91.7 184.6,91.7 183.8,97.3 174.7,97.3 
	173.4,93.9 170.1,85 166.8,76.3 165.5,72.8 165.5,72.7 163.5,67.5 160.2,58.6 156.9,49.9 155,44.8 154.8,44 153.4,50.5 151.3,60.3 
	150.2,65.7 149.2,70.2 147,80.1 145.7,86.2 145.7,86.3 145,89.9 143.4,97.3 130.4,97.3 131.3,92.5 132.6,85.1 132.6,85 133,82.7 
	134.8,73 136.6,63.1 136.6,63.1 138.4,53.3 140.1,43.7 140.6,41.2 140.6,41.1 141.9,33.9 143.6,24.1 144.7,18.2 144.7,18.1 
	145.3,15 147.5,2.6 151,9.3 153.3,13.5 157.4,21.5 160.3,26.9 160.3,27 161.9,30 166.4,38.6 169.6,44.7 170.9,47.2 170.9,47.2 
	171,47.4 171.2,47.1 174,37.1 175.4,32 175.4,32 176.8,27.2 179.6,17.2 180.6,13.7 180.6,13.6 182.2,8 183.8,2.6 "/>
<polyline class="st2" points="182.2,8 187.1,7 194.2,5.6 198.3,4.9 "/>
<polyline class="st2" points="145.3,15 151.5,13.8 153.3,13.5 "/>
<polyline class="st2" points="179.6,17.2 180.9,16.9 188.1,15.6 195.2,14.2 196.9,13.9 "/>
<polyline class="st2" points="143.6,24.1 145.4,23.8 152.5,22.4 157.4,21.5 "/>
<polyline class="st2" points="141.9,33.9 146.4,33 153.6,31.6 160.7,30.3 161.9,30 "/>
<polyline class="st2" points="176.8,27.2 182,26.2 189.1,24.8 195.4,23.6 "/>
<polyline class="st2" points="174,37.1 176,36.8 183.1,35.4 190.2,34 193.8,33.4 "/>
<polyline class="st2" points="140.1,43.7 140.9,43.5 147.5,42.2 154.6,40.9 154.7,40.9 161.8,39.5 166.4,38.6 "/>
<polyline class="st2" points="138.4,53.3 142,52.7 148.6,51.4 153.4,50.5 "/>
<polyline class="st2" points="156.9,49.9 162.8,48.7 169.9,47.3 170.9,47.2 170.9,47.2 171.2,47.1 177,46 184.1,44.6 191.3,43.3 
	192.3,43.1 "/>
<polyline class="st2" points="190.8,52.8 185.2,53.9 178.1,55.2 170.9,56.6 163.8,57.9 160.2,58.6 "/>
<polyline class="st2" points="151.3,60.3 149.6,60.7 142.9,61.9 136.6,63.1 "/>
<polyline class="st2" points="134.8,73 137.7,72.4 144,71.2 149.2,70.2 "/>
<polyline class="st2" points="163.5,67.5 164.9,67.2 172,65.9 179.2,64.5 186.2,63.1 189.2,62.5 189.3,62.5 "/>
<polyline class="st2" points="187.7,72.3 187.3,72.4 180.1,73.7 173,75.1 166.8,76.3 "/>
<polyline class="st2" points="147,80.1 145.1,80.5 138.8,81.7 133,82.7 "/>
<polyline class="st2" points="145,89.9 139.8,90.9 133.4,92.1 131.3,92.5 "/>
<polyline class="st2" points="170.1,85 174.1,84.3 181.2,83 186.2,82 "/>
<polyline class="st2" points="173.4,93.9 175.2,93.5 182.3,92.2 184.6,91.7 184.7,91.7 "/>
<polyline class="st2" points="140.6,41.1 140.6,41.2 140.9,43.5 142,52.7 142.9,61.9 144,71.2 145.1,80.5 145.7,86.2 145.7,86.3 "/>
<polyline class="st2" points="150.2,65.7 149.6,60.7 148.6,51.4 147.5,42.2 146.4,33 145.4,23.8 144.7,18.2 144.7,18.1 "/>
<polyline class="st2" points="151,9.3 151.5,13.8 152.5,22.4 153.6,31.6 154.6,40.9 154.7,40.9 155,44.8 "/>
<polyline class="st2" points="160.3,26.9 160.3,27 160.7,30.3 161.8,39.5 162.8,48.7 163.8,57.9 164.9,67.2 165.5,72.7 165.5,72.8 
	"/>
<polyline class="st2" points="175.6,97.3 175.2,93.5 174.1,84.3 173,75.1 172,65.9 170.9,56.6 169.9,47.3 169.6,44.7 "/>
<polyline class="st2" points="175.4,32 175.4,32 176,36.8 177,46 178.1,55.2 179.2,64.5 180.1,73.7 181.2,83 182.3,92.2 182.9,97.3 
	"/>
<polyline class="st2" points="187.4,73.9 187.4,73.8 187.3,72.4 186.2,63.1 185.2,53.9 184.1,44.6 183.1,35.4 182,26.2 180.9,16.9 
	180.6,13.7 180.6,13.6 "/>
<polyline class="st2" points="191.6,47 191.3,43.3 190.2,34 189.1,24.8 188.1,15.6 187.1,7 186.6,2.6 "/>
<polyline class="st2" points="140.5,97.3 139.8,90.9 138.8,81.7 137.7,72.4 136.6,63.1 136.6,63.1 "/>
<polyline class="st2" points="134,97.3 133.4,92.1 132.6,85.1 132.6,85 "/>
<polyline class="st3" points="6.3,78.8 8.6,77.9 15.3,75.1 23.8,71.6 30.8,68.7 38,65.7 46.1,62.3 48.3,61.4 "/>
<polyline class="st3" points="12.2,83.2 14.6,82.2 21.3,79.3 29.3,75.8 36.5,72.8 43.6,69.7 51.4,66.3 53.6,65.4 "/>
<polyline class="st3" points="19.2,88.4 21.8,87.3 28.7,84.4 36.5,81.2 43.8,78.1 51.1,75.1 58.8,71.8 61,71 "/>
<polyline class="st3" points="26.1,93.7 29,92.5 35.9,89.5 43.3,86.4 50.8,83.2 58.2,80.1 65.6,76.9 67.8,76 "/>
<polyline class="st3" points="5.1,75.4 8.6,77.9 14.6,82.2 21.8,87.3 29,92.5 35.7,97.3 "/>
<polyline class="st3" points="8.7,70.4 15.3,75.1 21.3,79.3 28.7,84.4 35.9,89.5 45.3,96 "/>
<polyline class="st3" points="17.2,66.6 23.8,71.6 29.3,75.8 36.5,81.2 43.3,86.4 52,93 "/>
<polyline class="st3" points="23.8,63.6 30.8,68.7 36.5,72.8 43.8,78.1 50.8,83.2 59.6,89.6 "/>
<polyline class="st3" points="30.7,60.5 38,65.7 43.6,69.7 51.1,75.1 58.2,80.1 66.9,86.3 "/>
<polyline class="st3" points="69,79.5 65.6,76.9 58.8,71.8 51.4,66.3 46.1,62.3 41.7,59 38.8,56.8 "/>
<path class="st4" d="M12.9,31.1c5.1,3.8,11.5,10.1,16.1,21c6.5,15.5,6.1,32.5,8,32.4c2-0.1,0.9-17.8,7.2-32.8
	c5-11.8,12.9-17.9,19.7-21.3"/>
<line class="st4" x1="37" y1="84.5" x2="35.3" y2="28"/>
<path class="st5" d="M34.9,2.6c-4.6,0-8.3,5.7-8.3,12.7S30.4,28,34.9,28h0.4c4.4-0.3,7.9-5.9,7.9-12.7C43.3,8.3,39.6,2.6,34.9,2.6z
	 M36.2,21.5c-0.4,0.2-0.7,0.3-1.1,0.3c-1.9,0.3-3.6-1.5-4.2-4.3c-0.7-3.4,0.6-7.2,2.8-8.4c2.2-1.2,4.6,0.6,5.3,4
	C39.7,16.5,38.4,20.3,36.2,21.5z"/>
</svg>
