<svg id="Layer_1" data-name="Layer 1" xmlns="http://www.w3.org/2000/svg" viewBox="0 0 841.89 595.28"><defs><style>.cls-1,.cls-2,.cls-3,.cls-5,.cls-8{fill:none;}.cls-1{stroke:#dfe324;}.cls-1,.cls-2,.cls-3,.cls-4,.cls-5,.cls-6,.cls-8{stroke-miterlimit:10;}.cls-2,.cls-3,.cls-4,.cls-5{stroke:#3db54a;}.cls-2,.cls-6{stroke-width:1.3px;}.cls-4{fill:#019547;}.cls-4,.cls-5{stroke-width:0.5px;}.cls-6,.cls-7{fill:#3db54a;}.cls-6{stroke:#f4f5cb;}.cls-8{stroke:#fff;}</style></defs><polyline class="cls-1" points="26.15 472.18 38.38 466.58 75.06 449.58 121.08 428.15 159.22 410.39 198.31 392.24 242.56 371.77 254.31 366.17"/><polyline class="cls-1" points="58.17 499.01 71.04 492.84 107.73 475.07 151.33 454.02 189.95 435.49 228.88 416.57 271.36 396.1 283.11 390.31"/><polyline class="cls-1" points="95.98 530.87 110.14 524.12 147.79 506.55 189.95 486.85 230.01 468.12 269.75 449.39 311.43 429.7 323.33 424.29"/><polyline class="cls-1" points="133.95 562.93 149.24 555.59 187.21 537.44 227.11 518.52 267.98 499.01 308.05 480.09 348.43 460.78 360.18 455.18"/><polyline class="cls-1" points="19.71 451.51 38.38 466.58 71.04 492.84 110.14 524.12 149.24 555.59 185.92 585.13"/><polyline class="cls-1" points="39.02 421.2 75.06 449.58 107.73 475.07 147.79 506.55 187.21 537.44 238.06 577.41"/><polyline class="cls-1" points="85.36 397.64 121.08 428.15 151.33 454.02 189.95 486.85 227.11 518.52 274.58 558.87"/><polyline class="cls-1" points="121.24 379.49 159.22 410.39 189.95 435.49 230.01 468.12 267.98 499.01 315.93 538.02"/><polyline class="cls-1" points="158.73 360.57 198.31 392.24 228.88 416.57 269.75 449.39 308.05 480.09 355.51 517.94"/><polyline class="cls-1" points="366.94 476.42 348.27 460.78 311.43 429.7 271.36 396.1 242.56 371.77 218.26 351.3 202.66 338.17"/><path class="cls-2" d="M61.71,181.19c27.67,23,62.59,61.6,87.37,127.83,35.4,94.42,33,198.3,43.6,197.91,10.94-.38,4.67-108.71,38.94-199.84,27-72,70.15-109.29,107.32-129.76"/><line class="cls-2" x1="192.68" y1="506.74" x2="183.83" y2="162.46"/><line class="cls-3" x1="182.87" y1="125" x2="182.87" y2="124.81"/><path class="cls-3" d="M188.66,122.69a14.06,14.06,0,0,1-5.79,2.12c-10.14,1.55-19.79-8.88-23-26.45C156.16,77.5,162.92,54.53,175,47s25.1,3.28,28.8,24.33S200.73,115.16,188.66,122.69Z"/><path class="cls-4" d="M181.74,7.22c-24.94,0-45.21,34.76-45.21,77.62s20.27,77.62,45.21,77.62h2.09c24-1.93,43.12-35.91,43.12-77.62C227,42,206.84,7.22,181.74,7.22Zm6.92,115.66a13.3,13.3,0,0,1-5.79,2.12c-10.14,1.55-19.79-8.88-23-26.45-3.7-20.85,3.06-43.83,15.12-51.36,12.23-7.53,25.1,3.47,28.8,24.33C207.48,92.18,200.73,115.16,188.66,122.88Z"/><path class="cls-5" d="M188.66,122.69a14.06,14.06,0,0,1-5.79,2.12c-10.14,1.55-19.79-8.88-23-26.45C156.16,77.5,162.92,54.53,175,47s25.1,3.28,28.8,24.33S200.73,115.16,188.66,122.69Z"/><polygon class="cls-6" points="438.38 544 475.7 281.6 540.22 544 570.15 544 618.58 77.5 570.15 77.5 528.48 298.4 452.05 77.5 396.22 544 438.38 544"/><polygon class="cls-7" points="814.24 77.5 812.95 88.7 808.44 133.31 805.23 164.01 805.23 164.39 803.46 181 798.47 229.08 793.48 276.96 791.39 296.27 788.49 324.66 783.66 372.54 783.5 372.54 778.68 420.62 777.71 428.15 777.71 428.54 773.53 468.31 768.7 516.2 768.54 516.2 765.8 543.81 736.04 543.81 731.86 526.82 721.08 483.38 710.46 440.32 706.11 422.94 706.11 422.55 699.84 396.87 689.06 353.43 678.27 310.18 672.16 285.27 671.36 281.6 666.85 313.26 660.09 361.73 656.23 388.18 653.17 410.39 646.1 458.85 641.75 488.97 641.75 489.36 639.34 507.13 634.19 543.81 591.87 543.81 594.77 520.06 599.11 483.76 599.11 483.38 600.4 471.98 606.19 424.1 612.15 375.63 612.15 375.25 617.78 327.36 623.57 279.67 625.18 267.5 625.18 267.12 629.36 231.59 634.99 183.32 638.53 154.16 638.53 153.77 640.46 138.71 647.71 77.5 658.97 110.33 666.37 131.18 679.88 170.38 689.22 197.22 689.22 197.6 694.53 212.67 709.01 254.76 719.47 284.88 723.65 297.05 723.81 297.05 724.13 298.2 724.61 296.66 733.79 247.61 738.45 222.51 738.45 222.13 742.96 198.76 752.13 149.33 755.51 132.34 755.51 131.96 760.66 103.96 765.8 77.5 814.24 77.5"/><polyline class="cls-8" points="760.66 103.96 776.59 99.32 799.75 92.56 812.95 88.7"/><polyline class="cls-8" points="640.46 138.71 660.74 132.73 666.37 131.18"/><polyline class="cls-8" points="752.13 149.33 756.47 148.17 779.8 141.42 802.97 134.85 808.44 133.31"/><polyline class="cls-8" points="634.99 183.32 640.63 181.77 663.96 175.01 679.88 170.38"/><polyline class="cls-8" points="629.36 231.59 644 227.15 667.33 220.39 690.5 213.82 694.53 212.67"/><polyline class="cls-8" points="742.96 198.76 760.01 193.55 783.18 186.99 803.46 181"/><polyline class="cls-8" points="733.79 247.61 740.38 245.68 763.55 238.93 786.56 232.36 798.47 229.08"/><polyline class="cls-8" points="623.57 279.67 625.98 278.89 647.54 272.52 670.71 265.96 670.87 265.96 694.04 259.2 709.01 254.76"/><polyline class="cls-8" points="617.78 327.36 629.52 324.27 651.08 317.9 666.85 313.26"/><polyline class="cls-8" points="678.27 310.18 697.26 304.57 720.59 297.82 723.65 297.05 723.81 297.05 724.61 296.66 743.6 291.06 766.93 284.49 790.1 277.74 793.48 276.96"/><polyline class="cls-8" points="788.49 324.66 770.31 329.87 747.14 336.63 723.81 343.19 700.8 349.95 689.06 353.43"/><polyline class="cls-8" points="660.09 361.73 654.3 363.47 632.74 369.65 612.15 375.63"/><polyline class="cls-8" points="606.19 424.1 615.52 421.39 636.28 415.41 653.17 410.39"/><polyline class="cls-8" points="699.84 396.87 704.18 395.71 727.35 388.95 750.68 382.39 773.69 375.63 783.5 372.54 783.66 372.54"/><polyline class="cls-8" points="778.68 420.62 777.23 421.01 753.9 427.76 730.73 434.52 710.46 440.32"/><polyline class="cls-8" points="646.1 458.85 639.66 460.98 619.06 466.77 600.4 471.98"/><polyline class="cls-8" points="639.34 507.13 622.6 512.14 601.69 518.13 594.77 520.06"/><polyline class="cls-8" points="721.08 483.38 734.27 479.9 757.44 473.14 773.53 468.31"/><polyline class="cls-8" points="731.86 526.82 737.65 525.27 760.82 518.52 768.54 516.2 768.7 516.2"/><polyline class="cls-8" points="625.18 267.12 625.18 267.5 625.98 278.89 629.52 324.27 632.74 369.65 636.28 415.41 639.66 460.98 641.75 488.97 641.75 489.36"/><polyline class="cls-8" points="656.23 388.18 654.3 363.47 651.08 317.9 647.54 272.52 644 227.15 640.63 181.77 638.53 154.16 638.53 153.77"/><polyline class="cls-8" points="658.97 110.33 660.74 132.73 663.96 175.01 667.33 220.39 670.71 265.96 670.87 265.96 672.16 285.27"/><polyline class="cls-8" points="689.22 197.22 689.22 197.6 690.5 213.82 694.04 259.2 697.26 304.57 700.8 349.95 704.18 395.71 706.11 422.55 706.11 422.94"/><polyline class="cls-8" points="739.1 543.81 737.65 525.27 734.27 479.9 730.73 434.52 727.35 388.95 723.81 343.19 720.59 297.82 719.47 284.88"/><polyline class="cls-8" points="738.45 222.13 738.45 222.51 740.38 245.68 743.6 291.06 747.14 336.63 750.68 382.39 753.9 427.76 757.44 473.14 760.82 518.52 762.75 543.81"/><polyline class="cls-8" points="777.71 428.54 777.71 428.15 777.23 421.01 773.69 375.63 770.31 329.87 766.93 284.49 763.55 238.93 760.01 193.55 756.47 148.17 755.51 132.34 755.51 131.96"/><polyline class="cls-8" points="791.39 296.27 790.1 277.74 786.56 232.36 783.18 186.99 779.8 141.42 776.59 99.32 774.98 77.5"/><polyline class="cls-8" points="805.23 164.39 805.23 164.01 802.97 134.85 799.75 92.56 798.63 77.5"/><polyline class="cls-8" points="624.86 543.81 622.6 512.14 619.06 466.77 615.52 421.39 612.15 375.63 612.15 375.25"/><polyline class="cls-8" points="603.62 543.81 601.69 518.13 599.11 483.76 599.11 483.38"/></svg>