<svg id="Layer_1" data-name="Layer 1" xmlns="http://www.w3.org/2000/svg" viewBox="0 0 841.89 595.28"><defs><style>.cls-1,.cls-2,.cls-3,.cls-5,.cls-8{fill:none;}.cls-1{stroke:#dfe324;}.cls-1,.cls-2,.cls-3,.cls-4,.cls-5,.cls-6,.cls-8{stroke-miterlimit:10;}.cls-1,.cls-8{stroke-width:1.7px;}.cls-2,.cls-3,.cls-4,.cls-5{stroke:#3db54a;}.cls-2,.cls-6{stroke-width:2px;}.cls-4{fill:#019547;}.cls-4,.cls-5{stroke-width:0.5px;}.cls-6,.cls-7{fill:#3db54a;}.cls-6{stroke:#f4f5cb;}.cls-8{stroke:#fff;}</style></defs><polyline class="cls-1" points="26.14 471.6 38.36 466 75 449.03 120.95 427.63 159.04 409.88 198.09 391.76 242.28 371.32 254.01 365.72"/><polyline class="cls-1" points="58.12 498.4 70.98 492.23 107.62 474.49 151.17 453.47 189.73 434.95 228.62 416.06 271.05 395.61 282.78 389.83"/><polyline class="cls-1" points="95.89 530.22 110.03 523.47 147.63 505.92 189.73 486.25 229.75 467.55 269.44 448.84 311.06 429.17 322.95 423.77"/><polyline class="cls-1" points="133.81 562.23 149.08 554.91 187 536.78 226.86 517.88 267.67 498.4 307.69 479.5 348.02 460.22 359.75 454.63"/><polyline class="cls-1" points="19.71 450.96 38.36 466 70.98 492.23 110.03 523.47 149.08 554.91 185.72 584.41"/><polyline class="cls-1" points="39 420.69 75 449.03 107.62 474.49 147.63 505.92 187 536.78 237.78 576.7"/><polyline class="cls-1" points="85.28 397.16 120.95 427.63 151.17 453.47 189.73 486.25 226.86 517.88 274.26 558.18"/><polyline class="cls-1" points="121.12 379.03 159.04 409.88 189.73 434.95 229.75 467.55 267.67 498.4 315.56 537.36"/><polyline class="cls-1" points="158.56 360.13 198.09 391.76 228.62 416.06 269.44 448.84 307.69 479.5 355.09 517.3"/><polyline class="cls-1" points="366.5 475.84 347.86 460.22 311.06 429.17 271.05 395.61 242.28 371.32 218.02 350.87 202.43 337.76"/><path class="cls-2" d="M61.66,181c27.64,22.94,62.51,61.51,87.26,127.66,35.35,94.3,32.94,198.05,43.55,197.67,10.92-.39,4.66-108.57,38.89-199.6,27-71.93,70.06-109.15,107.18-129.59"/><line class="cls-2" x1="192.47" y1="506.12" x2="183.63" y2="162.27"/><line class="cls-3" x1="182.66" y1="124.86" x2="182.66" y2="124.66"/><path class="cls-3" d="M188.45,122.54a14.06,14.06,0,0,1-5.79,2.12c-10.12,1.55-19.76-8.87-23-26.42C156,77.42,162.74,54.47,174.79,47s25.07,3.28,28.76,24.3S200.5,115,188.45,122.54Z"/><path class="cls-4" d="M181.54,7.22c-24.91,0-45.16,34.71-45.16,77.52s20.25,77.53,45.16,77.53h2.09c23.94-1.93,43.06-35.87,43.06-77.53C226.69,41.93,206.61,7.22,181.54,7.22Zm6.91,115.52a13.55,13.55,0,0,1-5.79,2.12c-10.12,1.54-19.76-8.87-23-26.42-3.69-20.83,3.06-43.78,15.11-51.3,12.21-7.52,25.07,3.47,28.76,24.3C207.25,92.07,200.5,115,188.45,122.74Z"/><path class="cls-5" d="M188.45,122.54a14.06,14.06,0,0,1-5.79,2.12c-10.12,1.55-19.76-8.87-23-26.42C156,77.42,162.74,54.47,174.79,47s25.07,3.28,28.76,24.3S200.5,115,188.45,122.54Z"/><polygon class="cls-6" points="437.85 543.34 475.13 281.26 539.58 543.34 569.47 543.34 617.84 77.42 569.47 77.42 527.84 298.03 451.51 77.42 395.75 543.34 437.85 543.34"/><polygon class="cls-7" points="813.25 77.42 811.96 88.6 807.46 133.15 804.25 163.81 804.25 164.2 802.48 180.78 797.5 228.8 792.51 276.63 790.43 295.91 787.53 324.26 782.71 372.09 782.55 372.09 777.73 420.11 776.77 427.63 776.77 428.01 772.59 467.74 767.77 515.57 767.61 515.57 764.88 543.14 735.15 543.14 730.97 526.17 720.2 482.78 709.59 439.78 705.26 422.42 705.26 422.03 698.99 396.39 688.22 353 677.46 309.8 671.35 284.92 670.54 281.26 666.04 312.88 659.3 361.29 655.44 387.71 652.39 409.88 645.32 458.29 640.98 488.37 640.98 488.76 638.57 506.5 633.42 543.14 591.16 543.14 594.05 519.42 598.39 483.17 598.39 482.78 599.68 471.4 605.46 423.58 611.41 375.17 611.41 374.79 617.03 326.96 622.82 279.33 624.42 267.18 624.42 266.79 628.6 231.31 634.23 183.1 637.76 153.98 637.76 153.59 639.69 138.55 646.92 77.42 658.17 110.2 665.56 131.03 679.06 170.18 688.38 196.98 688.38 197.37 693.68 212.41 708.15 254.45 718.59 284.54 722.77 296.68 722.93 296.68 723.25 297.84 723.74 296.3 732.9 247.31 737.56 222.25 737.56 221.86 742.06 198.53 751.22 149.16 754.59 132.19 754.59 131.8 759.73 103.84 764.88 77.42 813.25 77.42"/><polyline class="cls-8" points="759.73 103.84 775.64 99.21 798.78 92.46 811.96 88.6"/><polyline class="cls-8" points="639.69 138.55 659.94 132.57 665.56 131.03"/><polyline class="cls-8" points="751.22 149.16 755.55 148 778.86 141.25 802 134.69 807.46 133.15"/><polyline class="cls-8" points="634.23 183.1 639.85 181.55 663.15 174.8 679.06 170.18"/><polyline class="cls-8" points="628.6 231.31 643.23 226.87 666.53 220.12 689.67 213.57 693.68 212.41"/><polyline class="cls-8" points="742.06 198.53 759.09 193.32 782.23 186.76 802.48 180.78"/><polyline class="cls-8" points="732.9 247.31 739.48 245.39 762.63 238.64 785.61 232.08 797.5 228.8"/><polyline class="cls-8" points="622.82 279.33 625.23 278.56 646.76 272.19 669.9 265.63 670.06 265.63 693.2 258.89 708.15 254.45"/><polyline class="cls-8" points="617.03 326.96 628.76 323.88 650.3 317.51 666.04 312.88"/><polyline class="cls-8" points="677.46 309.8 696.42 304.2 719.72 297.45 722.77 296.68 722.93 296.68 723.74 296.3 742.7 290.71 766 284.15 789.14 277.4 792.51 276.63"/><polyline class="cls-8" points="787.53 324.26 769.37 329.47 746.23 336.22 722.93 342.77 699.95 349.52 688.22 353"/><polyline class="cls-8" points="659.3 361.29 653.51 363.02 631.98 369.19 611.41 375.17"/><polyline class="cls-8" points="605.46 423.58 614.78 420.88 635.51 414.9 652.39 409.88"/><polyline class="cls-8" points="698.99 396.39 703.33 395.23 726.47 388.48 749.77 381.92 772.75 375.17 782.55 372.09 782.71 372.09"/><polyline class="cls-8" points="777.73 420.11 776.28 420.49 752.98 427.24 729.84 433.99 709.59 439.78"/><polyline class="cls-8" points="645.32 458.29 638.89 460.41 618.32 466.2 599.68 471.4"/><polyline class="cls-8" points="638.57 506.5 621.85 511.52 600.96 517.49 594.05 519.42"/><polyline class="cls-8" points="720.2 482.78 733.38 479.31 756.52 472.56 772.59 467.74"/><polyline class="cls-8" points="730.97 526.17 736.75 524.63 759.89 517.88 767.61 515.57 767.77 515.57"/><polyline class="cls-8" points="624.42 266.79 624.42 267.18 625.23 278.56 628.76 323.88 631.98 369.19 635.51 414.9 638.89 460.41 640.98 488.37 640.98 488.76"/><polyline class="cls-8" points="655.44 387.71 653.51 363.02 650.3 317.51 646.76 272.19 643.23 226.87 639.85 181.55 637.76 153.98 637.76 153.59"/><polyline class="cls-8" points="658.17 110.2 659.94 132.57 663.15 174.8 666.53 220.12 669.9 265.63 670.06 265.63 671.35 284.92"/><polyline class="cls-8" points="688.38 196.98 688.38 197.37 689.67 213.57 693.2 258.89 696.42 304.2 699.95 349.52 703.33 395.23 705.26 422.03 705.26 422.42"/><polyline class="cls-8" points="738.2 543.14 736.75 524.63 733.38 479.31 729.84 433.99 726.47 388.48 722.93 342.77 719.72 297.45 718.59 284.54"/><polyline class="cls-8" points="737.56 221.86 737.56 222.25 739.48 245.39 742.7 290.71 746.23 336.22 749.77 381.92 752.98 427.24 756.52 472.56 759.89 517.88 761.82 543.14"/><polyline class="cls-8" points="776.77 428.01 776.77 427.63 776.28 420.49 772.75 375.17 769.37 329.47 766 284.15 762.63 238.64 759.09 193.32 755.55 148 754.59 132.19 754.59 131.8"/><polyline class="cls-8" points="790.43 295.91 789.14 277.4 785.61 232.08 782.23 186.76 778.86 141.25 775.64 99.21 774.03 77.42"/><polyline class="cls-8" points="804.25 164.2 804.25 163.81 802 134.69 798.78 92.46 797.66 77.42"/><polyline class="cls-8" points="624.1 543.14 621.85 511.52 618.32 466.2 614.78 420.88 611.41 375.17 611.41 374.79"/><polyline class="cls-8" points="602.89 543.14 600.96 517.49 598.39 483.17 598.39 482.78"/></svg>